# xmcd CD database file
#
# Track frame offsets:
#	150
#	24117
#	43997
#	70343
#	103851
#	129376
#	157369
#	181708
#	204714
#	228211
#	244985
#
# Disc length: 3619 seconds
#
# Revision: 0
# Processed by: cddbd v1.5.2PL0 Copyright (c) Steve Scherf et al.
# Submitted via: CDex 1.70beta2
#
DISCID=980e210b
DTITLE=Tcha Limberger Trio with Mozes Rosenberg - 'Live In Foix'
DYEAR=2015
DGENRE=Jazz
TTITLE0=My Blue Heaven
TTITLE1=Avalon
TTITLE2=Pour Que Ma Vie Demeure
TTITLE3=I Surrender Dear
TTITLE4=Moonglow
TTITLE5=Topsy
TTITLE6=Flamingo
TTITLE7=Someday You'll Be Sorry
TTITLE8=Some Of These Days
TTITLE9=Clai De Lune
TTITLE10=What Is This Thing Called Love
EXTD=YEAR: 2015
EXTT0=
EXTT1=
EXTT2=
EXTT3=
EXTT4=
EXTT5=
EXTT6=
EXTT7=
EXTT8=
EXTT9=
EXTT10=
PLAYORDER=
